<?xml version="1.0" standalone="no"?>
<?xml-stylesheet type="text/css" href="buttons.css" ?>
<!DOCTYPE svg PUBLIC "-//W3C//DTD SVG 1.1//EN" "../../schema/svg/svg11.dtd">
<!--

	creation:
		2002
	modified:
		2004-04-05
	creator:
		frederic.glorieux@ajlsm.com
	goal:
		Try to find a generic way to produce SVG buttons from a single SVG origin
	usage:
		May be be use with a splitter or a pipe
	history:
		The original xsl was a test never used
		Will be now part of XFolio
  rights :
    (c)ajlsm.com
    http://www.gnu.org/copyleft/gpl.html
  TODO:
    better modules
-->
<!--
size of buttons need to be set here, sorry can't provide it from CSS
viewBox="-5 -4 110 111" 
-->
<svg class="root" viewBox="0 0 100 100" xmlns="http://www.w3.org/2000/svg" xmlns:xlink="http://www.w3.org/1999/xlink">
	<defs>

    <!-- default symbol for tests -->
		<symbol class="number" id="symbol" viewBox="0 0 100 100">
			<text x="10" y="95">&amp;</text>
		</symbol>
		<!-- numbers -->
		<symbol class="number" id="one" viewBox="0 0 100 100">
			<text x="14" y="92" font-family="Frutiger, Arial, sans-serif" font-weight="bold" font-size="120">1</text>
		</symbol>
		<symbol class="number" id="two" viewBox="0 0 100 100">
			<text x="14" y="92" font-family="Frutiger, Arial, sans-serif" font-weight="bold" font-size="120">2</text>
		</symbol>
		<symbol class="number" id="three" viewBox="0 0 100 100">
			<text x="14" y="92" font-family="Frutiger, Arial, sans-serif" font-weight="bold" font-size="120">3</text>
		</symbol>
		<symbol class="number" id="four" viewBox="0 0 100 100">
			<text x="14" y="92" font-family="Frutiger, Arial, sans-serif" font-weight="bold" font-size="120">4</text>
		</symbol>
		<symbol class="number" id="five" viewBox="0 0 100 100">
			<text x="14" y="92" font-family="Frutiger, Arial, sans-serif" font-weight="bold" font-size="120">5</text>
		</symbol>
		<symbol class="number" id="six" viewBox="0 0 100 100">
			<text x="14" y="92" font-family="Frutiger, Arial, sans-serif" font-weight="bold" font-size="120">6</text>
		</symbol>
		<symbol class="number" id="seven" viewBox="0 0 100 100">
			<text x="14" y="92" font-family="Frutiger, Arial, sans-serif" font-weight="bold" font-size="120">7</text>
		</symbol>
		<symbol class="number" id="height" viewBox="0 0 100 100">
			<text x="14" y="92" font-family="Frutiger, Arial, sans-serif" font-weight="bold" font-size="120">8</text>
		</symbol>
		<symbol class="number" id="nine" viewBox="0 0 100 100">
			<text x="14" y="92" font-family="Frutiger, Arial, sans-serif" font-weight="bold" font-size="120">9</text>
		</symbol>
		<symbol class="number" id="zero" viewBox="0 0 100 100">
			<text x="14" y="92" font-family="Frutiger, Arial, sans-serif" font-weight="bold" font-size="120">0</text>
		</symbol>
		<!-- signes -->
		<symbol class="picto" id="fnext" viewBox="0 0 100 100">
			<g transform="rotate(0 50 50)">
				<polygon points="0,10 25,10 50,50 25,90 0,90 25,50"/>
				<polygon transform="translate(50)" points="0,10 25,10 50,50 25,90 0,90 25,50"/>
			</g>
		</symbol>
		<symbol class="picto" id="fprev" viewBox="0 0 100 100">
			<g transform="rotate(180 50 50)">
				<polygon points="0,10 25,10 50,50 25,90 0,90 25,50"/>
				<polygon transform="translate(50)" points="0,10 25,10 50,50 25,90 0,90 25,50"/>
			</g>
		</symbol>
		<symbol class="picto" id="fsup" viewBox="0 0 100 100">
			<g transform="rotate(-90 50 50)">
				<polygon points="0,10 25,10 50,50 25,90 0,90 25,50"/>
				<polygon transform="translate(50)" points="0,10 25,10 50,50 25,90 0,90 25,50"/>
			</g>
		</symbol>
		<symbol class="picto" id="fsub" viewBox="0 0 100 100">
			<g transform="rotate(90 50 50)">
				<polygon points="0,10 25,10 50,50 25,90 0,90 25,50"/>
				<polygon transform="translate(50)" points="0,10 25,10 50,50 25,90 0,90 25,50"/>
			</g>
		</symbol>
		<symbol class="picto" id="right" viewBox="0 0 100 100">
			<g transform="rotate(90 50 50)">
				<path d="
			M 50,0 100,60
			C 90,50, 10,50, 0,60
			L50,0z"/>
				<polygon points="30,90 70,90 60,50 40,50"/>
			</g>
		</symbol>
		<symbol class="picto" id="left" viewBox="0 0 100 100">
			<g transform="rotate(-90 50 50)">
				<path d="
			M 50,0 100,60
			C 90,50, 10,50, 0,60
			L50,0z"/>
				<polygon points="30,90 70,90 60,50 40,50"/>
			</g>
		</symbol>
		<symbol class="picto" id="up" viewBox="0 0 100 100">
			<g transform="rotate(0 50 50)">
				<path d="
			M 50,0 100,60
			C 90,50, 10,50, 0,60
			L50,0z"/>
				<polygon points="30,90 70,90 60,50 40,50"/>
			</g>
		</symbol>
		<symbol class="picto" id="down" viewBox="0 0 100 100">
			<g transform="rotate(180 50 50)">
				<path d="
			M 50,0 100,60
			C 90,50, 10,50, 0,60
			L50,0z"/>
				<polygon points="30,90 70,90 60,50 40,50"/>
			</g>
		</symbol>
		<symbol class="picto" id="start" viewBox="0 0 100 100">
			<rect width="26" height="80" x="10" y="10"/>
			<polygon transform="rotate(180 50 50)" points="8,8 8,92 64,50"/>
		</symbol>
		<symbol class="picto" id="prev" viewBox="0 0 100 100">
			<polygon transform="rotate(180 50 50)" points="17,10 17,90 95,50"/>
		</symbol>
		<symbol class="picto" id="next" viewBox="0 0 100 100">
			<polygon transform="rotate(0 50 50)" points="17,10 17,90 95,50"/>
		</symbol>
		<symbol class="picto" id="end" viewBox="0 0 100 100">
			<rect width="26" height="80" x="70" y="10"/>
			<polygon transform="rotate(0 50 50)" points="8,8 8,92 64,50"/>
		</symbol>
		<symbol class="picto" id="parent" viewBox="0 0 100 100">
			<polygon transform="rotate(-90 50 50)" points="17,10 17,90 95,50"/>
		</symbol>
		<symbol class="picto" id="child" viewBox="0 0 100 100">
			<polygon transform="rotate(90 50 50)" points="17,10 17,90 95,50"/>
		</symbol>
		<symbol class="picto" id="plus" viewBox="0 0 100 100">
<!--
      <text font-family="'Lucida Console', monospace, sans-serif" font-weight="bold" font-size="140" x="5" y="90">+</text>
-->			
			<polygon points="38,5 62,5 62,38 95,38 95,62 62,62 62,95 38,95 38,62 5,62 5,38 38,38"/>
		</symbol>
		<symbol class="picto" id="minus" viewBox="0 0 100 100">
<!--
      <text font-family="'Lucida Console', monospace, sans-serif" font-weight="bold" font-size="140" x="5" y="90">-</text>
-->
			<polygon points="8,35 92,35 92,65 8,65"/>
		</symbol>
		<symbol class="picto" id="home" viewBox="0 0 100 100">
			<polygon points="0,40 15,40 15,90 40,90 40,50 65,50 65,90 85,90 85,40 100,40 50,0"/>
		</symbol>
		<symbol class="picto" id="stop" viewBox="0 0 100 100">
			<rect x="15" y="15" width="70" height="70" stroke-linecap="round" stroke-linejoin="round" stroke="black" stroke-width="1"/>
		</symbol>
		<symbol class="letter" id="index" viewBox="0 0 100 100">
			<text font-family="Garamond, Times, serif" font-style="italic" font-weight="bold" font-size="130" x="32" y="95">i</text>
		</symbol>
		<symbol class="letter" id="help" viewBox="0 0 100 100">
			<text font-family="Times, serif" font-style="normal" font-weight="bold" font-size="142" x="17" y="97">?</text>
		</symbol>
		<symbol class="letter" id="amp" viewBox="0 0 100 100">
			<text font-family="Garamond, Times, serif" font-weight="bold" font-size="120" x="0" y="90">&amp;</text>
		</symbol>
    <!-- < v ^ > -->
		<symbol class="letter" id="lt" viewBox="0 0 100 100">
			<text transform="rotate(180 45 50)" font-family="'Lucida Console', monospace, sans-serif" font-weight="bold" font-size="120" x="3" y="92">&lt;</text>
		</symbol>
		<symbol class="letter" id="sup" viewBox="0 0 100 100">
			<text transform="rotate(90 46 60)" font-family="'Courier New', 'Lucida Console', monospace, sans-serif" font-weight="bold" font-size="120" x="3" y="92">&lt;</text>
		</symbol>
		<symbol class="letter" id="sub" viewBox="0 0 100 100">
			<text transform="rotate(-90 40 50)" font-family="'Courier New', 'Lucida Console', monospace, sans-serif" font-weight="bold" font-size="120" x="3" y="92">&lt;</text>
		</symbol>
		<symbol class="letter" id="gt" viewBox="0 0 100 100">
			<text font-family="'Lucida Console', monospace, sans-serif" font-weight="bold" font-size="120" x="3" y="92">&gt;</text>
		</symbol>
		<!-- ~ -->
		<symbol class="letter" id="tilde" viewBox="0 0 100 100">
			<text font-family="'Lucida Console', monospace" font-weight="bold" font-size="160" x="0" y="92">~</text>
		</symbol>
		<symbol class="letter" id="star" viewBox="0 0 100 100">
			<text font-family="Garamond, Times, serif" font-weight="bold" font-size="240" x="-7" y="167">*</text>
		</symbol>
		<symbol class="letter" id="alpha" viewBox="0 0 100 100">
			<text font-family="Garamond, Times, serif" font-weight="bold" font-size="180" x="10" y="90">&#945;</text>
		</symbol>
		<symbol class="letter" id="omega" viewBox="0 0 100 100">
			<text font-family="Garamond, Times, serif" font-weight="bold" font-size="120" x="4" y="92">&#937;</text>
		</symbol>
		<symbol class="letter" id="sharp" viewBox="0 0 100 100">
			<g transform="scale(1.4,1)">
				<text font-family="sans-serif" font-weight="bold" font-size="120" x="3" y="92">#</text>
			</g>
		</symbol>
		<g id="common">
			<!-- groove -->
			<filter id="groove" filterUnits="objectBoundingBox" x="-10%" y="-10%" width="120%" height="120%">
				<feGaussianBlur in="SourceAlpha" stdDeviation="1" result="skin"/>
				<feComposite in="SourceGraphic" in2="skin" operator="arithmetic" k1="0" k2="1" k3="1" k4="0"/>
			</filter>
			<!-- outset -->
			<filter id="outset" filterUnits="userSpaceOnUse" x="-10" y="-10" width="120" height="120">
				<feGaussianBlur in="SourceGraphic" stdDeviation="0.1" result="sign"/>
				<feGaussianBlur in="SourceGraphic" stdDeviation="2"/>
				<feColorMatrix type="hueRotate" values="90"/>
				<feColorMatrix type="matrix" values="0.3 0 0 0 0  0 0.3 0 0 0  0 0 0.3 0 0  0 0 0 0.4 0"/>
				<feOffset dx="7" dy="7" result="shadow"/>
				<feMorphology in="SourceGraphic" operator="dilate" radius="1.5"/>
				<feGaussianBlur stdDeviation="1" result="bord"/>
				<feDiffuseLighting diffuseConstant="1" surfaceScale="1" lighting-color="white">
					<feDistantLight azimuth="-120" elevation="45"/>
				</feDiffuseLighting>
				<feComposite in2="bord" operator="arithmetic" k1="1" k2="1" k3="0.6" k4="0"/>
				<feComposite in2="bord" operator="in" result="bord"/>
				<feMerge>
					<!--<feMergeNode in="shadow"/>-->
					<feMergeNode in="bord"/>
					<feMergeNode in="sign"/>
				</feMerge>
				<!--
            <feComposite in="bord" in2="sign" operator="out" result="bord"/>
-->
			</filter>
			<!-- ridge -->
			<filter id="ridge" filterUnits="objectBoundingBox" x="-10%" y="-10%" width="120%" height="120%">
				<feGaussianBlur in="SourceAlpha" stdDeviation="4" result="reflect"/>
				<feGaussianBlur in="SourceAlpha" stdDeviation="2" result="shadow"/>
				<feOffset in="shadow" dx="2" dy="2.5" result="shadow"/>
				<feSpecularLighting in="reflect" surfaceScale="5" specularConstant="1" specularExponent="20" lighting-color="#CCCCCC" result="reflect">
					<fePointLight x="-5000" y="-10000" z="20000"/>
				</feSpecularLighting>
				<feComposite in="reflect" in2="SourceAlpha" operator="in" result="reflect"/>
				<feComposite in="SourceGraphic" in2="reflect" operator="arithmetic" k1="0" k2="1" k3="1" k4="0" result="reflect"/>
				<feMerge>
					<feMergeNode in="shadow"/>
					<feMergeNode in="reflect"/>
				</feMerge>
			</filter>
			<!-- bump  -->
			<filter id="bump" filterUnits="objectBoundingBox">
				<feGaussianBlur in="SourceGraphic" stdDeviation="30"/>
				<feDiffuseLighting diffuseConstant="1" surfaceScale="20" lighting-color="white">
					<feDistantLight azimuth="-110" elevation="30"/>
				</feDiffuseLighting>
				<feComposite in2="SourceAlpha" operator="in"/>
				<feComposite result="skin" in2="SourceGraphic" operator="arithmetic" k1="0.5" k2="0.5" k3="0.5" k4="0"/>
				<feGaussianBlur result="border" in="SourceAlpha" stdDeviation="1"/>
				<feComposite in="skin" in2="border" operator="arithmetic" k1="0" k2="1" k3="1" k4="0"/>
			</filter>
			<!-- inset -->
			<filter id="inset" filterUnits="objectBoundingBox" x="-10%" y="-10%" width="120%" height="120%">
				<feMorphology in="SourceAlpha" result="blur" operator="dilate" radius="1.5"/>
				<feGaussianBlur in="blur" stdDeviation="0.5" result="blur"/>
				<feDiffuseLighting in="blur" result="bord" diffuseConstant="1" surfaceScale="2" lighting-color="white">
					<feDistantLight azimuth="60" elevation="45"/>
				</feDiffuseLighting>
				<feComposite in="bord" in2="blur" operator="in" result="bord"/>
				<feGaussianBlur in="SourceGraphic" stdDeviation="0.5" result="sign"/>
				<feComposite in="bord" in2="sign" operator="out" result="bord"/>
				<feMerge>
					<feMergeNode in="bord"/>
					<feMergeNode in="sign"/>
				</feMerge>
			</filter>
		</g>
	</defs>
	<!--
	default group 
	-->
	<g class="over" id="button">
		<rect class="bg"  fill="Beige" x="1" y="1" width="98" height="98" stroke-linecap="square" stroke-linejoin="round" stroke="none" filter="url(#bump)"/>
		<rect class="border" filter="url(#ridge)" stroke="green" fill="none" stroke-width="4" x="4" y="4" width="88" height="88" rx="20" ry="20" stroke-linecap="round" stroke-linejoin="round"/>
		<!-- the #symbol in xlink:href is replaced by xsl -->
		<use class="symbol" xlink:href="#one"  fill="black" x="10" y="10" width="80" height="80" filter="url(#inset)"/>
	</g>

	<!--
			<img style="cursor:hand" src="{@id}.png" alt="{@id}.png" onmouseover="this.src='{@id}1.png'" onmouseout="this.src='{@id}.png'" onclick="this.src='{@id}2.png'"/>
-->
</svg>
